<?xml version="1.0" encoding="UTF-8" standalone="no"?>
<!-- Created with Inkscape (http://www.inkscape.org/) -->

<svg
   xmlns:dc="http://purl.org/dc/elements/1.1/"
   xmlns:cc="http://creativecommons.org/ns#"
   xmlns:rdf="http://www.w3.org/1999/02/22-rdf-syntax-ns#"
   xmlns:svg="http://www.w3.org/2000/svg"
   xmlns="http://www.w3.org/2000/svg"
   xmlns:sodipodi="http://sodipodi.sourceforge.net/DTD/sodipodi-0.dtd"
   xmlns:inkscape="http://www.inkscape.org/namespaces/inkscape"
   width="55.167999mm"
   height="7.7220001mm"
   viewBox="0 0 55.167999 7.7220001"
   version="1.1"
   id="svg8"
   inkscape:version="0.92.4 (5da689c313, 2019-01-14)"
   sodipodi:docname="Logo.svg">
  <defs
     id="defs2">
    <inkscape:perspective
       id="perspective843"
       inkscape:persp3d-origin="64.000002 : 42.666662 : 1"
       inkscape:vp_z="128 : 63.999995 : 1"
       inkscape:vp_y="0 : 999.99994 : 0"
       inkscape:vp_x="0 : 63.999995 : 1"
       sodipodi:type="inkscape:persp3d" />
  </defs>
  <sodipodi:namedview
     id="base"
     pagecolor="#ffffff"
     bordercolor="#666666"
     borderopacity="1.0"
     inkscape:pageopacity="0.0"
     inkscape:pageshadow="2"
     inkscape:zoom="2.8"
     inkscape:cx="126.45528"
     inkscape:cy="35.238167"
     inkscape:document-units="mm"
     inkscape:current-layer="layer1"
     showgrid="false"
     inkscape:window-width="1920"
     inkscape:window-height="1017"
     inkscape:window-x="-8"
     inkscape:window-y="-8"
     inkscape:window-maximized="1" />
  <metadata
     id="metadata5">
    <rdf:RDF>
      <cc:Work
         rdf:about="">
        <dc:format>image/svg+xml</dc:format>
        <dc:type
           rdf:resource="http://purl.org/dc/dcmitype/StillImage" />
        <dc:title></dc:title>
      </cc:Work>
    </rdf:RDF>
  </metadata>
  <g
     inkscape:label="Layer 1"
     inkscape:groupmode="layer"
     id="layer1"
     transform="translate(0,-289.278)">
    <flowRoot
       xml:space="preserve"
       id="flowRoot815"
       style="font-style:normal;font-variant:normal;font-weight:normal;font-stretch:normal;font-size:40px;line-height:1.25;font-family:'League Spartan';-inkscape-font-specification:'League Spartan';letter-spacing:0px;word-spacing:0px;fill:#000000;fill-opacity:1;stroke:none"
       transform="matrix(0.26458333,0,0,0.26458333,-36.416002,63.958996)"><flowRegion
         id="flowRegion817"
         style="font-style:normal;font-variant:normal;font-weight:normal;font-stretch:normal;font-family:'League Spartan';-inkscape-font-specification:'League Spartan'"><rect
           id="rect819"
           width="394.28571"
           height="205.71428"
           x="165.71428"
           y="239.66254"
           style="font-style:normal;font-variant:normal;font-weight:normal;font-stretch:normal;font-family:'League Spartan';-inkscape-font-specification:'League Spartan'" /></flowRegion><flowPara
         id="flowPara821" /></flowRoot>    <g
       aria-label="HOT SHAPES"
       transform="matrix(0.99997413,0,0,1.0000259,-36.416002,71.721905)"
       style="font-style:normal;font-variant:normal;font-weight:900;font-stretch:normal;font-size:10.58360672px;line-height:1.25;font-family:'League Spartan';-inkscape-font-specification:'League Spartan Heavy';text-align:center;letter-spacing:0px;word-spacing:0px;text-anchor:middle;fill:#000000;fill-opacity:1;stroke:none;stroke-width:0.26459017"
       id="text825">
      <path
         inkscape:connector-curvature="0"
         d="m 40.481049,222.34828 h -1.879648 v 2.78842 h -2.184457 v -7.45086 h 2.184457 v 2.7715 h 1.879648 v -2.7715 h 2.178812 v 7.45086 h -2.178812 z"
         style="font-size:11.28918171px;line-height:1.25;text-align:center;letter-spacing:-1.09011161px;text-anchor:middle;stroke-width:0.26459017"
         id="path850" />
      <path
         inkscape:connector-curvature="0"
         d="m 42.522451,221.40563 q 0,-0.81282 0.293519,-1.51275 0.299163,-0.70558 0.829755,-1.23052 0.530591,-0.52495 1.24181,-0.81847 0.716863,-0.29352 1.546617,-0.29352 0.846689,0 1.557908,0.29352 0.716863,0.29352 1.241809,0.81847 0.530592,0.52494 0.818466,1.23052 0.293519,0.69993 0.293519,1.51275 0,0.81846 -0.28223,1.52404 -0.282229,0.69993 -0.807176,1.23052 -0.519302,0.52495 -1.236166,0.81846 -0.716863,0.29352 -1.58613,0.29352 -1.185364,0 -2.06592,-0.51365 -0.880556,-0.51366 -1.365991,-1.38857 -0.47979,-0.87492 -0.47979,-1.96432 z m 2.280415,0 q 0,0.50237 0.203205,0.92007 0.203205,0.41205 0.570104,0.66041 0.366898,0.24272 0.857977,0.24272 0.496724,0 0.863623,-0.24272 0.366898,-0.24836 0.570104,-0.66041 0.203205,-0.4177 0.203205,-0.92007 0,-0.50237 -0.203205,-0.91442 -0.203206,-0.41206 -0.570104,-0.66042 -0.366899,-0.24836 -0.863623,-0.24836 -0.491079,0 -0.857977,0.24836 -0.366899,0.24836 -0.570104,0.66042 -0.203205,0.41205 -0.203205,0.91442 z"
         style="font-size:11.28918171px;line-height:1.25;text-align:center;letter-spacing:-1.09011161px;text-anchor:middle;stroke-width:0.26459017"
         id="path852" />
      <path
         inkscape:connector-curvature="0"
         d="m 51.106815,219.58243 h -1.608708 v -1.89659 h 5.401873 v 1.89659 h -1.608708 v 5.55427 h -2.184457 z"
         style="font-size:11.28918171px;line-height:1.25;text-align:center;letter-spacing:-1.09011161px;text-anchor:middle;stroke-width:0.26459017"
         id="path854" />
      <path
         inkscape:connector-curvature="0"
         d="m 59.632969,217.55037 q 0.722508,0 1.281322,0.15805 0.564459,0.15241 0.908779,0.32739 0.349965,0.17498 0.428989,0.23707 l -1.03296,1.74982 q -0.09031,-0.0677 -0.316097,-0.18627 -0.220139,-0.12418 -0.496724,-0.22014 -0.276585,-0.0959 -0.530592,-0.0959 -0.299163,0 -0.496724,0.0847 -0.19756,0.079 -0.19756,0.27659 0,0.2032 0.248362,0.3669 0.254006,0.15805 0.925713,0.38383 0.863622,0.28223 1.416792,0.84669 0.558814,0.56446 0.558814,1.50146 0,0.6209 -0.259651,1.06118 -0.254006,0.43464 -0.682995,0.70558 -0.428989,0.27094 -0.959581,0.39512 -0.524947,0.12982 -1.066827,0.12982 -0.829755,0 -1.478883,-0.18062 -0.643484,-0.18063 -1.044249,-0.38948 -0.395122,-0.21449 -0.485435,-0.30481 l 1.066827,-1.8232 q 0.06209,0.0508 0.265296,0.16369 0.20885,0.11289 0.496724,0.23708 0.293519,0.12418 0.603971,0.21449 0.310453,0.0847 0.575749,0.0847 0.694284,0 0.694284,-0.39512 0,-0.20321 -0.248362,-0.37819 -0.248362,-0.17498 -0.987803,-0.43463 -0.474146,-0.17499 -0.903135,-0.45722 -0.428989,-0.28223 -0.699929,-0.73379 -0.27094,-0.45157 -0.27094,-1.12892 0,-0.68864 0.383832,-1.17972 0.383832,-0.49108 0.999093,-0.75073 0.61526,-0.2653 1.3039,-0.2653 z"
         style="font-size:11.28918171px;line-height:1.25;text-align:center;letter-spacing:-1.09011161px;text-anchor:middle;stroke-width:0.26459017"
         id="path856" />
      <path
         inkscape:connector-curvature="0"
         d="m 66.185986,222.34828 h -1.879648 v 2.78842 h -2.184457 v -7.45086 h 2.184457 v 2.7715 h 1.879648 v -2.7715 h 2.178812 v 7.45086 h -2.178812 z"
         style="font-size:11.28918171px;line-height:1.25;text-align:center;letter-spacing:-1.09011161px;text-anchor:middle;stroke-width:0.26459017"
         id="path858" />
      <path
         inkscape:connector-curvature="0"
         d="m 70.902925,217.68584 h 2.1393 l 3.070658,7.45086 h -2.331216 l -0.474146,-1.29261 h -2.658602 l -0.47979,1.29261 h -2.336861 z m 0.479791,4.26167 h 1.191008 l -0.587037,-1.64258 h -0.01693 z"
         style="font-size:11.28918171px;line-height:1.25;text-align:center;letter-spacing:-1.09011161px;text-anchor:middle;stroke-width:0.26459017"
         id="path860" />
      <path
         inkscape:connector-curvature="0"
         d="m 75.447351,217.68584 h 3.121458 q 0.728153,0 1.31519,0.27094 0.587037,0.2653 0.931357,0.79025 0.349965,0.52494 0.349965,1.28696 0,0.76202 -0.349965,1.31519 -0.34432,0.54753 -0.931357,0.84669 -0.587037,0.29352 -1.31519,0.29352 h -0.937002 v 2.64731 h -2.184456 z m 2.184456,3.10453 h 0.327386 q 0.372543,0 0.615261,-0.16369 0.248362,-0.1637 0.248362,-0.53624 0,-0.37254 -0.248362,-0.53624 -0.242718,-0.16933 -0.615261,-0.16933 h -0.327386 z"
         style="font-size:11.28918171px;line-height:1.25;text-align:center;letter-spacing:-1.09011161px;text-anchor:middle;stroke-width:0.26459017"
         id="path862" />
      <path
         inkscape:connector-curvature="0"
         d="m 80.878683,217.68584 h 5.001107 v 1.89659 h -2.816651 v 0.90313 h 2.816651 v 1.83449 h -2.816651 v 0.92007 h 2.816651 v 1.89658 h -5.001107 z"
         style="font-size:11.28918171px;line-height:1.25;text-align:center;letter-spacing:-1.09011161px;text-anchor:middle;stroke-width:0.26459017"
         id="path864" />
      <path
         inkscape:connector-curvature="0"
         d="m 88.887825,217.55037 q 0.722508,0 1.281322,0.15805 0.564459,0.15241 0.908779,0.32739 0.349965,0.17498 0.428989,0.23707 l -1.03296,1.74982 q -0.09031,-0.0677 -0.316097,-0.18627 -0.220139,-0.12418 -0.496724,-0.22014 -0.276585,-0.0959 -0.530591,-0.0959 -0.299164,0 -0.496724,0.0847 -0.197561,0.079 -0.197561,0.27659 0,0.2032 0.248362,0.3669 0.254006,0.15805 0.925713,0.38383 0.863622,0.28223 1.416792,0.84669 0.558815,0.56446 0.558815,1.50146 0,0.6209 -0.259652,1.06118 -0.254006,0.43464 -0.682995,0.70558 -0.428989,0.27094 -0.959581,0.39512 -0.524947,0.12982 -1.066827,0.12982 -0.829755,0 -1.478883,-0.18062 -0.643483,-0.18063 -1.044249,-0.38948 -0.395122,-0.21449 -0.485435,-0.30481 l 1.066828,-1.8232 q 0.06209,0.0508 0.265295,0.16369 0.20885,0.11289 0.496724,0.23708 0.293519,0.12418 0.603971,0.21449 0.310453,0.0847 0.575749,0.0847 0.694284,0 0.694284,-0.39512 0,-0.20321 -0.248362,-0.37819 -0.248362,-0.17498 -0.987803,-0.43463 -0.474146,-0.17499 -0.903134,-0.45722 -0.428989,-0.28223 -0.69993,-0.73379 -0.27094,-0.45157 -0.27094,-1.12892 0,-0.68864 0.383832,-1.17972 0.383832,-0.49108 0.999093,-0.75073 0.61526,-0.2653 1.3039,-0.2653 z"
         style="font-size:11.28918171px;line-height:1.25;text-align:center;letter-spacing:-1.09011161px;text-anchor:middle;stroke-width:0.26459017"
         id="path866" />
    </g>
  </g>
</svg>
